<svg xmlns="http://www.w3.org/2000/svg" xmlns:xlink="http://www.w3.org/1999/xlink" width="316.87" height="79" viewBox="0 0 316.87 79">
  <defs>
    <filter id="BOOK" x="88.87" y="8" width="131" height="71" filterUnits="userSpaceOnUse">
      <feOffset dx="2" dy="2" input="SourceAlpha"/>
      <feGaussianBlur stdDeviation="2" result="blur"/>
      <feFlood flood-color="#222" flood-opacity="0.161"/>
      <feComposite operator="in" in2="blur"/>
      <feComposite in="SourceGraphic"/>
    </filter>
    <filter id="WORM" x="191.87" y="9" width="125" height="56" filterUnits="userSpaceOnUse">
      <feOffset dx="2" dy="2" input="SourceAlpha"/>
      <feGaussianBlur stdDeviation="2" result="blur-2"/>
      <feFlood flood-color="#222" flood-opacity="0.161"/>
      <feComposite operator="in" in2="blur-2"/>
      <feComposite in="SourceGraphic"/>
    </filter>
    <filter id="Path_1" x="0" y="0" width="45.17" height="73.906" filterUnits="userSpaceOnUse">
      <feOffset dx="3" dy="3" input="SourceAlpha"/>
      <feGaussianBlur stdDeviation="1" result="blur-3"/>
      <feFlood flood-opacity="0.161"/>
      <feComposite operator="in" in2="blur-3"/>
      <feComposite in="SourceGraphic"/>
    </filter>
    <filter id="Path_2" x="38.994" y="0" width="45.17" height="73.906" filterUnits="userSpaceOnUse">
      <feOffset dx="3" dy="3" input="SourceAlpha"/>
      <feGaussianBlur stdDeviation="1" result="blur-4"/>
      <feFlood flood-opacity="0.161"/>
      <feComposite operator="in" in2="blur-4"/>
      <feComposite in="SourceGraphic"/>
    </filter>
  </defs>
  <g id="LOGO" transform="translate(-63.13 -107)">
    <g transform="matrix(1, 0, 0, 1, 63.13, 107)" filter="url(#BOOK)">
      <text id="BOOK-2" data-name="BOOK" transform="translate(92.87 12)" fill="#e000fe" font-size="35" font-family="Gadugi-Bold, Gadugi" font-weight="700"><tspan x="0" y="38">BOOK</tspan></text>
    </g>
    <g transform="matrix(1, 0, 0, 1, 63.13, 107)" filter="url(#WORM)">
      <text id="WORM-2" data-name="WORM" transform="translate(195.87 13)" fill="#ee6dff" font-size="33" font-family="Gadugi" opacity="0.83"><tspan x="0" y="36">WORM</tspan></text>
    </g>
    <g transform="matrix(1, 0, 0, 1, 63.13, 107)" filter="url(#Path_1)">
      <path id="Path_1-2" data-name="Path 1" d="M12.521-14.87,51.691-32.5V14.391L12.521,35.406Z" transform="translate(-12.52 32.5)" fill="#e000fe"/>
    </g>
    <g transform="matrix(1, 0, 0, 1, 63.13, 107)" filter="url(#Path_2)">
      <path id="Path_2-2" data-name="Path 2" d="M51.691-14.87,12.521-32.5V14.391l39.17,21.015Z" transform="translate(26.47 32.5)" fill="#ee6dff"/>
    </g>
  </g>
</svg>
