<svg xmlns="http://www.w3.org/2000/svg" width="48.571" height="34" viewBox="0 0 48.571 34">
  <path id="users-solid" d="M7.286,46.571a4.857,4.857,0,1,0-4.857-4.857A4.862,4.862,0,0,0,7.286,46.571Zm34,0a4.857,4.857,0,1,0-4.857-4.857A4.862,4.862,0,0,0,41.286,46.571ZM43.714,49H38.857a4.843,4.843,0,0,0-3.423,1.412,11.1,11.1,0,0,1,5.7,8.3h5.009a2.426,2.426,0,0,0,2.429-2.429V53.857A4.862,4.862,0,0,0,43.714,49ZM24.286,49a8.5,8.5,0,1,0-8.5-8.5A8.5,8.5,0,0,0,24.286,49Zm5.829,2.429h-.63a11.736,11.736,0,0,1-10.4,0h-.63a8.745,8.745,0,0,0-8.743,8.743v2.186A3.644,3.644,0,0,0,13.357,66H35.214a3.644,3.644,0,0,0,3.643-3.643V60.171A8.745,8.745,0,0,0,30.114,51.429ZM13.137,50.412A4.843,4.843,0,0,0,9.714,49H4.857A4.862,4.862,0,0,0,0,53.857v2.429a2.426,2.426,0,0,0,2.429,2.429h5a11.129,11.129,0,0,1,5.707-8.3Z" transform="translate(0 -32)" fill="#6f82ff"/>
</svg>
